PathFileType	4	(X/Y/Z)	/Users/itak/Documents/Research/Walk-IL/dataset/trc/00292_00010.trc
DataRate	CameraRate	NumFrames	NumMarkers	Units	OrigDataRate	OrigDataStartFrame	OrigNumFrames
100.000000	100.000000	4	54	mm	100.000000	81	653
Frame#	Time	RPSI			LPSI			L3			STRN			T10			C7			CLAV			RBAK			LBAK			LSHO			LUPA			LAEL			LAOL			LWTS			LWPS			LFRA			LHPS			LHTS			RSHO			RUPA			RAEL			RAOL			RWTS			RWPS			RFRA			RIFD			RHPS			RBHD			LFHD			RFHD			LBHD			LHIP			RHIP			RASI			LASI			LKNE			LTHI			LANK			LTIP			LTOE			LMT1			LMT5			LHEE			RKNE			RTHI			RANK			RTIP			RTOE			RMT1			RMT5			RHEE			RHTS			LIFD			*53			
		X1	Y1	Z1	X2	Y2	Z2	X3	Y3	Z3	X4	Y4	Z4	X5	Y5	Z5	X6	Y6	Z6	X7	Y7	Z7	X8	Y8	Z8	X9	Y9	Z9	X10	Y10	Z10	X11	Y11	Z11	X12	Y12	Z12	X13	Y13	Z13	X14	Y14	Z14	X15	Y15	Z15	X16	Y16	Z16	X17	Y17	Z17	X18	Y18	Z18	X19	Y19	Z19	X20	Y20	Z20	X21	Y21	Z21	X22	Y22	Z22	X23	Y23	Z23	X24	Y24	Z24	X25	Y25	Z25	X26	Y26	Z26	X27	Y27	Z27	X28	Y28	Z28	X29	Y29	Z29	X30	Y30	Z30	X31	Y31	Z31	X32	Y32	Z32	X33	Y33	Z33	X34	Y34	Z34	X35	Y35	Z35	X36	Y36	Z36	X37	Y37	Z37	X38	Y38	Z38	X39	Y39	Z39	X40	Y40	Z40	X41	Y41	Z41	X42	Y42	Z42	X43	Y43	Z43	X44	Y44	Z44	X45	Y45	Z45	X46	Y46	Z46	X47	Y47	Z47	X48	Y48	Z48	X49	Y49	Z49	X50	Y50	Z50	X51	Y51	Z51	X52	Y52	Z52	X53	Y53	Z53	X54	Y54	Z54	

82	0.8100000000000001	-63.76848220825195	964.7498168945312	1054.111206054688	-124.2988967895508	965.5447387695312	1217.542724609375	-116.3274993896484	1033.686889648438	1149.994140625	-352.9960632324219	1195.240356445312	1030.369750976562	-118.041015625	1149.362670898438	1162.93994140625	-174.181884765625	1391.15478515625	1144.134643554688	-303.0421752929688	1298.991088867188	1058.264282226562	-87.55885314941406	1252.723266601562	1116.922241210938	-217.4186706542969	1358.633666992188	1242.111694335938	-322.2586669921875	1361.36279296875	1234.244995117188	-340.2710571289062	1245.722412109375	1313.47900390625	-363.5382995605469	1049.999389648438	1320.829467773438	-281.8456420898438	1020.153442382812	1307.869873046875	-501.9487915039062	916.6776733398438	1210.667602539062	-504.8268432617188	880.0350341796875	1272.787231445312	-414.6004333496094	969.1941528320312	1309.683837890625	-555.538330078125	814.7977294921875	1243.369995117188	-582.6574096679688	853.9596557617188	1197.769653320312	-141.8253326416016	1359.486328125	978.5206909179688	-91.41512298583984	1305.245849609375	934.6781005859375	7.105055332183838	1059.516967773438	938.1588134765625	-31.83059692382812	1048.964111328125	1023.337036132812	-33.94623565673828	811.89599609375	922.7694091796875	48.00815200805664	831.9025268554688	902.875244140625	18.02315139770508	991.4876098632812	917.9320678710938	24.38072776794434	637.4745483398438	947.6966552734375	65.26774597167969	719.31640625	904.2833862304688	-150.8512878417969	1548.323364257812	1068.17724609375	-360.8890686035156	1582.352905273438	1054.890380859375	-304.2686157226562	1576.475463867188	983.0606689453125	-241.9077453613281	1548.061889648438	1181.37939453125	-212.9965209960938	912.0443115234375	1291.37841796875	-132.4354858398438	914.7127685546875	924.8245239257812	-264.4429016113281	914.8594970703125	962.3683471679688	-333.2915649414062	904.1837158203125	1206.21875	-149.7732391357422	458.3022766113281	1296.893676757812	-188.2601776123047	595.1802978515625	1297.642333984375	165.2312316894531	124.3368530273438	1373.98486328125	8.821592330932617	292.9136962890625	1348.514770507812	17.93233871459961	37.48463821411133	1272.198608398438	86.74147796630859	50.16064071655273	1246.404541015625	68.81491851806641	50.31135940551758	1358.673950195312	214.5404815673828	155.7676849365234	1327.931762695312	-351.9822387695312	487.1363220214844	932.3385009765625	-246.1852111816406	727.5359497070312	900.6564331054688	-337.5012512207031	45.13698959350586	1000.681701660156	-386.1443786621094	362.8588562011719	946.2554321289062	-540.3226928710938	47.96979141235352	993.0741577148438	-496.2160339355469	43.455810546875	1047.913696289062	-430.508056640625	39.61562347412109	950.585205078125	-302.8128662109375	38.07223129272461	1062.183227539062	-2.70705771446228	695.9681396484375	907.0013427734375	-613.8648071289062	778.5848999023438	1161.511474609375	nan	nan	nan	
83	0.8200000000000001	-73.12525939941406	966.3323364257812	1048.846069335938	-133.8225555419922	966.5843505859375	1212.16650390625	-125.5316162109375	1035.250122070312	1144.760375976562	-360.5512390136719	1197.93359375	1023.754150390625	-126.6943969726562	1150.56640625	1157.995849609375	-181.1404876708984	1392.463134765625	1139.048217773438	-310.0153198242188	1301.451904296875	1052.044189453125	-95.29533386230469	1253.3427734375	1112.26513671875	-225.4849548339844	1360.465454101562	1236.667846679688	-330.2080688476562	1364.04150390625	1227.74560546875	-350.1380920410156	1248.701416015625	1306.695068359375	-374.5444030761719	1052.71142578125	1314.257690429688	-292.5835266113281	1023.2236328125	1302.4677734375	-508.9371337890625	913.3478393554688	1205.0078125	-512.2340087890625	879.02783203125	1268.445434570312	-424.3407287597656	970.6895751953125	1303.8603515625	-561.1936645507812	811.849853515625	1240.78515625	-588.2407836914062	848.651611328125	1193.20947265625	-147.8031158447266	1360.583984375	973.7021484375	-97.55799865722656	1306.030639648438	930.0241088867188	-1.598664999008179	1059.253173828125	932.8219604492188	-40.77277755737305	1048.810546875	1017.831481933594	-46.09360885620117	812.4780883789062	915.4821166992188	36.32112121582031	831.141845703125	896.413330078125	8.544004440307617	991.1156005859375	912.29833984375	9.346936225891113	636.8102416992188	939.6798095703125	51.78472900390625	718.3076782226562	897.1502685546875	-157.1203002929688	1550.338134765625	1063.405883789062	-367.1091918945312	1584.0849609375	1049.089233398438	-310.1192016601562	1578.462036132812	977.55712890625	-248.7501831054688	1549.681640625	1176.13916015625	-222.9276275634766	913.3990478515625	1285.596313476562	-141.2406158447266	916.4506225585938	919.301025390625	-273.3093566894531	916.77197265625	956.5185546875	-342.9898681640625	906.4603881835938	1199.978271484375	-166.7830200195312	458.0049743652344	1292.759643554688	-203.0261993408203	595.3277587890625	1292.72021484375	156.0669860839844	132.5802459716797	1373.270141601562	-4.478758811950684	296.7139282226562	1346.211303710938	17.22834587097168	36.93236923217773	1272.393188476562	84.15763092041016	52.67142486572266	1246.3525390625	65.16269683837891	52.1832160949707	1358.689331054688	203.2019195556641	166.6675872802734	1326.822998046875	-357.1700134277344	486.150390625	929.3740844726562	-254.3012237548828	727.5014038085938	895.8146362304688	-337.712158203125	45.39094924926758	1000.790283203125	-390.1770935058594	361.7169799804688	944.1356201171875	-540.7665405273438	47.13729476928711	993.4381713867188	-496.4613037109375	42.917236328125	1048.184814453125	-430.68798828125	39.76144790649414	950.7451782226562	-302.9066467285156	38.16431427001953	1062.217529296875	-16.45540809631348	696.0794067382812	899.1942138671875	-617.3684692382812	771.2334594726562	1159.53759765625	nan	nan	nan	
84	0.8300000000000001	-82.31564331054688	967.9865112304688	1043.674926757812	-143.1651611328125	967.5966796875	1206.900390625	-134.6544494628906	1036.806884765625	1139.48828125	-368.059814453125	1200.605346679688	1017.293029785156	-135.2135925292969	1151.76220703125	1152.964233398438	-187.9911346435547	1393.723754882812	1133.934936523438	-316.9365234375	1303.904052734375	1045.928833007812	-102.9309768676758	1253.93701171875	1107.514282226562	-233.3364868164062	1362.274658203125	1231.244506835938	-337.9182434082031	1366.717529296875	1221.404296875	-359.6377563476562	1251.675903320312	1300.070556640625	-385.3306274414062	1055.407592773438	1307.792236328125	-303.1212463378906	1026.287353515625	1297.11474609375	-515.4920654296875	909.8436279296875	1199.62744140625	-519.2356567382812	877.8528442382812	1264.251220703125	-433.8446044921875	972.0934448242188	1298.118896484375	-566.2632446289062	808.6759033203125	1238.385620117188	-593.1370239257812	842.9902954101562	1188.892578125	-153.8034057617188	1361.667846679688	968.8504028320312	-103.7454452514648	1306.81591796875	925.3106079101562	-10.36138820648193	1058.977172851562	927.2363891601562	-49.71014785766602	1048.675170898438	1012.12060546875	-58.51703262329102	813.1553344726562	908.0172119140625	24.30439949035645	830.3530883789062	889.6451416015625	-1.077110648155212	990.7252807617188	906.4088134765625	-6.367655754089355	636.1986083984375	931.23779296875	37.76259231567383	717.276123046875	889.62109375	-163.326904296875	1552.354125976562	1058.642822265625	-373.278564453125	1585.76953125	1043.310180664062	-315.9348754882812	1580.388061523438	972.07421875	-255.5009918212891	1551.308837890625	1170.917114257812	-232.7176666259766	914.6615600585938	1279.833251953125	-149.8217468261719	918.194091796875	913.8711547851562	-281.9738159179688	918.6270751953125	950.682373046875	-352.5439147949219	908.794677734375	1193.662841796875	-184.6337127685547	457.5193176269531	1288.441040039062	-218.3476257324219	595.3153686523438	1287.70849609375	145.4200439453125	141.2316131591797	1372.379150390625	-19.06170654296875	300.2391662597656	1343.583129882812	16.21016120910645	36.16921997070312	1272.48681640625	81.0421142578125	55.52759552001953	1246.1953125	60.89758682250977	54.52213668823242	1358.5947265625	190.3839111328125	177.7224731445312	1325.515380859375	-361.7777099609375	485.1458129882812	926.566162109375	-261.8713684082031	727.4404296875	891.0833129882812	-337.8605346679688	45.59061431884766	1000.9462890625	-393.6469421386719	360.6115112304688	942.0839233398438	-541.0886840820312	46.60258102416992	993.7600708007812	-496.6589660644531	42.49694061279297	1048.417236328125	-430.827880859375	39.92913818359375	950.90087890625	-302.9672241210938	38.21483993530273	1062.30908203125	-30.74094772338867	696.3607177734375	890.9893188476562	-619.7439575195312	763.5037841796875	1157.764282226562	nan	nan	nan	
85	0.84	-91.28721618652344	969.6703491210938	1038.658203125	-152.3353271484375	968.5478515625	1201.796020507812	-143.6720733642578	1038.301147460938	1134.245727539062	-375.5152893066406	1203.19091796875	1011.007202148438	-143.5961456298828	1152.925415039062	1147.8994140625	-194.7598724365234	1394.9169921875	1128.805053710938	-323.8062438964844	1306.28173828125	1039.932250976562	-110.4517211914062	1254.500122070312	1102.686645507812	-240.9913177490234	1364.032104492188	1225.85205078125	-345.4269104003906	1369.33251953125	1215.22900390625	-368.7692565917969	1254.583618164062	1293.64306640625	-395.8452758789062	1058.02587890625	1301.462768554688	-313.3915100097656	1029.294311523438	1291.792846679688	-521.607421875	906.209716796875	1194.55078125	-525.82470703125	876.50830078125	1260.217163085938	-443.0682373046875	973.3671875	1292.47802734375	-570.7735595703125	805.3204345703125	1236.160034179688	-597.3450927734375	837.0573120117188	1184.845703125	-159.8437957763672	1362.7080078125	963.96728515625	-109.9943161010742	1307.565307617188	920.5377197265625	-19.19048690795898	1058.6513671875	921.4013671875	-58.68601989746094	1048.506591796875	1006.2138671875	-71.21724700927734	813.8626708984375	900.4150390625	11.953049659729	829.5234375	882.5671997070312	-10.84987831115723	990.2845458984375	900.262451171875	-22.68046569824219	635.6412963867188	922.4060668945312	23.23924255371094	716.2290649414062	881.6979370117188	-169.4707489013672	1554.299072265625	1053.906372070312	-379.3919372558594	1587.4072265625	1037.55712890625	-321.6991882324219	1582.242309570312	966.6209106445312	-262.1745910644531	1552.89501953125	1165.727416992188	-242.3856658935547	915.77685546875	1274.122192382812	-158.1091613769531	919.8906860351562	908.5701904296875	-290.3860168457031	920.3856811523438	944.860107421875	-361.9550476074219	911.1220092773438	1187.255126953125	-203.2172241210938	456.884521484375	1283.861328125	-234.1173858642578	595.161376953125	1282.576416015625	133.2035217285156	150.2555999755859	1371.34228515625	-34.94179534912109	303.4039001464844	1340.58740234375	14.73030471801758	35.20370483398438	1272.415405273438	77.23931884765625	58.80967712402344	1245.899169921875	55.85768508911133	57.39870834350586	1358.336303710938	176.095458984375	188.7976989746094	1324.060302734375	-365.9020385742188	484.1709899902344	923.8777465820312	-268.8982849121094	727.3965454101562	886.4818115234375	-337.9625549316406	45.73897933959961	1001.113464355469	-396.6625061035156	359.5601501464844	940.0880737304688	-541.3135375976562	46.26883316040039	994.0322875976562	-496.8249206542969	42.16322708129883	1048.608276367188	-430.9407958984375	40.08693313598633	951.037841796875	-303.0020141601562	38.2601318359375	1062.415893554688	-45.5139045715332	696.7982177734375	882.4190673828125	-621.144775390625	755.6095581054688	1156.249755859375	nan	nan	nan	
